<?xml version="1.0" ?><!DOCTYPE svg  PUBLIC '-//W3C//DTD SVG 1.1//EN'  'http://www.w3.org/Graphics/SVG/1.1/DTD/svg11.dtd'><svg width="50px" height="50px" viewBox="0 0 50 50" enable-background="new 0 0 50 50" id="Layer_1" version="1.1" xml:space="preserve" xmlns="http://www.w3.org/2000/svg" xmlns:xlink="http://www.w3.org/1999/xlink"><g><path d="M43.24221,36.6069H6.75773c-1.11335,0-2.0159-0.90255-2.0159-2.0159V10.56023   c0-1.11335,0.90255-2.0159,2.0159-2.0159h36.48449c1.11335,0,2.0159,0.90255,2.0159,2.0159V34.591   C45.25811,35.70435,44.35556,36.6069,43.24221,36.6069z" fill="#656766"/><rect fill="#FFFFFF" height="23.7743" width="36.22847" x="6.8858" y="10.68843"/><path d="M1.00267,38.7775c-0.06394,1.37669,1.01245,2.67817,2.55288,2.67817h42.88884   c1.54042,0,2.61681-1.30148,2.55288-2.67817H1.00267z" fill="#656766"/><polygon fill="#4E4C4D" points="30.10592,38.7775 19.89402,38.7775 21.47204,40.11659 28.5279,40.11659  "/><g><circle cx="22.81584" cy="17.28087" fill="#EC6E62" r="3.78732"/><path d="M29.01044,25.95731c-1.47037-1.7888-3.69731-2.93019-6.19456-2.93019    c-2.49732,0-4.72427,1.14139-6.19464,2.93019c-1.00687,1.22488-0.10373,3.07731,1.48187,3.07731h9.42546    C29.11416,29.03462,30.01731,27.18218,29.01044,25.95731z" fill="#EC6E62"/></g><g><path d="M32.25243,32.34688h-5.63594c-0.51374,0-0.9302-0.41647-0.9302-0.9302v-3.88497    c0-0.51374,0.41647-0.9302,0.9302-0.9302h5.63594c0.51374,0,0.93021,0.41647,0.93021,0.9302v3.88497    C33.18263,31.93041,32.76617,32.34688,32.25243,32.34688z" fill="#656766"/><path d="M27.54809,26.60151v-1.55152c0-1.03,0.85125-1.88125,1.88973-1.88125    c1.03855,0,1.88129,0.85125,1.88129,1.88125v1.55152h0.85125v-1.55152c0-1.50672-1.22578-2.7325-2.73254-2.7325    c-1.5152,0-2.74098,1.22578-2.74098,2.7325v1.55152H27.54809z" fill="#656766"/><circle cx="29.43446" cy="29.4742" fill="#E7E3E6" r="1.08715"/></g></g></svg>